<?xml version="1.0" encoding="utf-8"?>
<!-- Generator: Adobe Illustrator 18.1.1, SVG Export Plug-In . SVG Version: 6.00 Build 0)  -->
<svg version="1.1" id="Layer_1" xmlns="http://www.w3.org/2000/svg" xmlns:xlink="http://www.w3.org/1999/xlink" x="0px" y="0px"
	 viewBox="0 0 383.3 66.7" enable-background="new 0 0 383.3 66.7" xml:space="preserve">
<g>
	<g>
		<g>
			<path fill="#FFFFFF" d="M15.6,4.7l5.2,19.5c1.4-4,5-7,9.2-8.1C38,14,44.8,18.4,47,26.6l5.8,22l-10.1,2.7l-5.3-19.9
				C36.3,27.2,33,24.9,29,26c-3.9,1-6.3,5.1-5.2,9.5L29,54.9l-10.1,2.7L5.5,7.4L15.6,4.7z"/>
			<path fill="#FFFFFF" d="M95,24.6c1.5,11.3-5.5,20.2-17.3,21.8C66.1,47.9,57,41.1,55.6,29.8C54.1,18.4,61.1,9.6,72.7,8
				C84.5,6.5,93.5,13.2,95,24.6z M84.6,26c-0.8-5.8-5.1-9.5-10.6-8.8c-5.4,0.7-8.7,5.4-7.9,11.2s5.1,9.5,10.5,8.8
				C82.1,36.5,85.3,31.8,84.6,26z"/>
			<path fill="#FFFFFF" d="M113.1,6.1l0.1,4.8c2.5-3.9,6.6-6.3,11.3-6.4c8-0.1,13.6,6,13.7,14.6l0.4,22.4l-10.5,0.2l-0.3-20.6
				c-0.1-4.3-2.6-7.4-6.8-7.3c-4.1,0.1-7.4,3.4-7.4,8l0.3,20.2l-10.5,0.2l-0.6-35.8L113.1,6.1z"/>
			<path fill="#FFFFFF" d="M167.3,6.5c11.4,1.1,18.5,9.7,17.3,21c-0.1,0.9-0.2,2.4-0.4,3.1l-27.9-2.8c0.4,5.1,3.5,8.7,8.2,9.2
				c3.9,0.4,7.4-1.5,8.8-4.5l9.3,2.3c-2.4,6.8-10.5,11.1-19.2,10.3c-11.5-1.1-18.8-9.9-17.7-21.4C146.9,12.4,155.8,5.4,167.3,6.5z
				 M174.4,23.3c-0.2-4.6-3.3-8.3-8.1-8.7c-4.6-0.5-8.1,2.4-9.5,7L174.4,23.3z"/>
			<path fill="#FFFFFF" d="M187.1,53.6c1.1,0.7,2.8,1.3,4,1.6c4.4,1,6.8-1.7,9.3-5.6l-8.7-39l11.2,2.5l4.5,24.7l12.8-20.8l10.7,2.4
				l-21.6,33.2c-5.3,8.3-10.3,13-17.4,11.4c-2.2-0.5-4.7-1.6-6.5-2.7L187.1,53.6z"/>
		</g>
	</g>
	<g>
		<path fill="#FFFFFF" d="M270.7,62.7c-5-0.4-8.9-2.9-11.5-6.7l-0.4,4.3l-10.3-0.8l4.2-51.8l10.5,0.8L261.6,29
			c3.2-3.4,7.4-5.2,12.3-4.8c10,0.8,16.3,9.3,15.4,20.6C288.3,56.1,280.6,63.5,270.7,62.7z M260.1,42.5c-0.5,5.7,3.1,10.2,8.6,10.6
			c5.4,0.4,9.7-3.4,10.1-9.1c0.5-5.7-3.1-10.2-8.6-10.6C264.8,33,260.5,36.8,260.1,42.5z"/>
		<path fill="#FFFFFF" d="M312.8,21.5c11.3-2,20.4,4.3,22.4,15.4c0.2,0.9,0.4,2.3,0.4,3.1L308.1,45c1.8,4.8,5.8,7.4,10.4,6.6
			c3.9-0.7,6.7-3.5,7.2-6.8l9.5-0.4c-0.5,7.2-7,13.6-15.6,15.1c-11.4,2.1-20.8-4.4-22.8-15.8C294.8,32.7,301.5,23.6,312.8,21.5z
			 M324.2,35.7c-1.4-4.4-5.5-7-10.2-6.2c-4.5,0.8-7.2,4.5-7.2,9.3L324.2,35.7z"/>
		<path fill="#FFFFFF" d="M353.1,9.9c10.7-4.2,20.8,0.3,25,10.9c0.3,0.8,0.9,2.2,1,3l-26.2,10.1c2.7,4.4,7.1,6.2,11.5,4.5
			c3.7-1.4,5.9-4.7,5.8-8l9.3-2.2c0.9,7.2-4.3,14.7-12.4,17.8c-10.8,4.2-21.3-0.4-25.4-11.1C337.5,24.4,342.3,14.1,353.1,9.9z
			 M367,21.7c-2.2-4-6.7-5.9-11.2-4.1c-4.3,1.7-6.2,5.8-5.3,10.5L367,21.7z"/>
	</g>
</g>
</svg>
