<?xml version="1.0" encoding="utf-8"?>
<!-- Generator: Adobe Illustrator 18.1.1, SVG Export Plug-In . SVG Version: 6.00 Build 0)  -->
<svg version="1.1" id="Layer_1" xmlns="http://www.w3.org/2000/svg" xmlns:xlink="http://www.w3.org/1999/xlink" x="0px" y="0px"
	 viewBox="0 0 41.4 53.6" enable-background="new 0 0 41.4 53.6" xml:space="preserve">
<g>
	<path fill="#FFFFFF" d="M37.9,28.3c-1-4.1-3.6-8.3-7.3-11.9c-0.1-0.1-0.2-0.1-0.2-0.2c-0.1-0.3-0.3-0.6-0.4-0.9
		c-0.2-0.5-0.5-0.9-0.7-1.4C27.1,10.3,24.1,8,20.8,8s-6.4,2.3-8.5,5.8c-0.3,0.4-0.5,0.9-0.7,1.4c-0.1,0.2-0.2,0.5-0.3,0.7l-0.1,0.1
		c-0.1,0.1-0.2,0.2-0.4,0.3C7.1,20,4.5,24.2,3.5,28.3c-1.1,4.2-0.4,7.8,2,10c1.6,1.6,3.9,2.4,6.6,2.4c0.6,0,0.9-0.1,1.4-0.1
		c0.1,0,0.3-0.1,0.5-0.1l0.1,0c0.9,1,1.9,1.9,3,2.5l3.7,7.3l3.7-7.3c1.1-0.6,2.1-1.4,3-2.5c0.2,0,0.3,0.1,0.5,0.1
		c0.5,0.1,0.7,0.1,1.4,0.1c2.7,0,5-0.8,6.6-2.4C38.3,36,39,32.5,37.9,28.3z M20.8,9.3c3.1,0,6,2.3,7.8,6c-1.9,3.6-4.7,6-7.8,6
		s-6-2.3-7.8-6C14.8,11.6,17.6,9.3,20.8,9.3z M12.3,16.6c2.1,3.6,5.1,5.8,8.5,5.8s6.4-2.2,8.5-5.8c0.9,2.1,1.4,4.5,1.7,7.1
		c-2.4,4.1-6.1,6.8-10.1,6.8s-7.7-2.6-10.1-6.8C10.8,21.1,11.4,18.7,12.3,16.6z M12.9,39.3c-0.3,0-0.4,0.1-0.8,0.1
		c-2.3,0-4.3-0.7-5.6-2c-2-1.9-2.6-5.1-1.6-8.8c0.8-3.2,2.7-6.6,5.4-9.6c-0.2,0.9-0.4,1.8-0.6,2.7c-0.1,0.9-0.2,1.9-0.3,2.8
		c0,0.5,0,1,0,1.4c0,5.3,1.5,10,3.8,13.3C13,39.3,12.9,39.3,12.9,39.3z M20.8,42.6c-5.6,0-10.1-7.3-10.2-16.3
		c2.7,3.5,6.3,5.6,10.2,5.6s7.6-2.1,10.2-5.6C30.9,35.4,26.3,42.6,20.8,42.6z M35,37.4c-1.4,1.3-3.3,2-5.6,2c-0.4,0-0.6,0-0.8-0.1
		c0,0-0.1,0-0.1,0c2.4-3.3,3.8-8,3.8-13.3c0-0.5,0-1,0-1.4c-0.1-1-0.2-1.9-0.3-2.8c-0.1-0.9-0.3-1.7-0.5-2.5c2.6,3,4.4,6.3,5.2,9.4
		C37.6,32.3,37,35.4,35,37.4z"/>
	<line fill="none" stroke="#FFFFFF" stroke-width="1.5" stroke-miterlimit="10" x1="27.4" y1="4.5" x2="22.9" y2="9"/>
	<line fill="none" stroke="#FFFFFF" stroke-width="1.5" stroke-miterlimit="10" x1="13.5" y1="4.5" x2="17.9" y2="9"/>
</g>
</svg>
